<?xml version="1.0" standalone="no"?>
<!DOCTYPE svg PUBLIC "-//W3C//DTD SVG 20010904//EN"
 "http://www.w3.org/TR/2001/REC-SVG-20010904/DTD/svg10.dtd">
<svg version="1.0" xmlns="http://www.w3.org/2000/svg"
 width="538.000000pt" height="538.000000pt" viewBox="0 0 538.000000 538.000000"
 preserveAspectRatio="xMidYMid meet">
<metadata>
Created by potrace 1.14, written by Peter Selinger 2001-2017
</metadata>
<g transform="translate(0.000000,538.000000) scale(0.100000,-0.100000)"
fill="#000000" stroke="none">
<path d="M4204 4081 c7 -10 3 -12 -13 -6 -13 4 -21 2 -21 -6 0 -8 -4 -8 -13
-1 -7 6 -18 8 -24 4 -6 -4 -41 -7 -77 -6 -36 0 -66 -2 -66 -6 0 -3 -15 -7 -32
-8 -40 -3 -58 -7 -80 -16 -9 -4 -22 -5 -28 -1 -5 3 -10 2 -10 -3 0 -8 -6 -10
-50 -14 -11 -1 -20 -6 -20 -10 0 -4 -3 -7 -7 -6 -5 1 -18 -3 -29 -10 -12 -6
-25 -8 -29 -4 -5 4 -5 2 -2 -4 4 -7 -4 -15 -21 -19 -15 -3 -35 -14 -44 -22
-10 -9 -18 -13 -18 -9 0 4 -11 -5 -25 -20 -14 -15 -25 -24 -25 -20 0 4 -13 -8
-30 -26 -16 -18 -30 -36 -30 -40 0 -3 -9 -10 -20 -13 -11 -3 -20 -15 -20 -26
0 -10 -4 -19 -10 -19 -5 0 -10 -7 -10 -15 0 -8 -5 -15 -11 -15 -5 0 -7 -4 -4
-10 3 -5 1 -10 -5 -10 -6 0 -8 -5 -4 -11 3 -6 1 -15 -5 -19 -7 -4 -13 -17 -14
-28 -1 -12 -5 -22 -8 -22 -4 0 -6 -12 -3 -26 3 -16 1 -23 -6 -19 -7 4 -7 -2 0
-19 7 -18 6 -26 -1 -26 -7 0 -6 -6 2 -17 8 -9 9 -14 3 -10 -14 8 -13 -51 1
-73 5 -9 4 -11 -3 -6 -14 9 -15 -3 -3 -23 6 -9 6 -22 0 -33 -7 -14 -6 -20 5
-24 12 -5 13 -10 5 -26 -8 -15 -8 -19 0 -14 6 4 11 0 11 -8 0 -9 4 -16 8 -16
5 0 9 -7 10 -15 1 -8 3 -22 4 -30 1 -8 5 -12 10 -9 7 5 12 -9 9 -28 0 -4 8
-10 19 -13 11 -4 20 -11 20 -16 0 -14 47 -59 54 -52 3 4 6 1 6 -5 0 -6 9 -14
20 -17 11 -4 18 -11 15 -16 -3 -5 2 -6 11 -2 12 4 15 3 10 -5 -4 -8 -2 -10 7
-6 8 3 17 -2 21 -11 3 -9 10 -13 16 -10 5 3 10 1 10 -5 0 -6 4 -9 9 -5 5 3 15
-1 23 -8 7 -8 19 -12 26 -9 6 2 12 -2 12 -9 0 -7 3 -10 6 -6 4 3 13 -1 21 -9
8 -8 19 -12 24 -9 5 4 9 1 9 -6 0 -7 3 -10 6 -6 4 3 20 -1 36 -9 16 -9 36 -13
44 -10 9 3 12 1 9 -4 -6 -9 9 -15 30 -10 5 1 15 -7 22 -16 10 -14 13 -14 13
-3 1 11 4 10 14 -3 7 -10 16 -15 19 -11 4 3 13 1 21 -6 7 -6 27 -13 44 -14 16
-1 28 -6 24 -11 -3 -5 2 -6 12 -3 10 4 19 1 23 -9 3 -9 8 -12 12 -5 4 6 22 3
50 -10 24 -10 50 -19 58 -19 8 0 12 -4 9 -9 -4 -5 2 -8 11 -6 10 1 28 -4 41
-12 13 -8 30 -12 38 -9 9 3 12 1 9 -4 -3 -6 2 -10 12 -10 11 0 25 -6 32 -12
11 -11 12 -10 6 2 -5 9 1 7 15 -5 13 -11 20 -14 15 -6 -5 10 -4 12 3 7 7 -4
12 -14 12 -22 0 -8 4 -12 10 -9 5 3 20 -1 33 -10 13 -8 27 -12 30 -8 4 3 7 1
7 -6 0 -7 5 -9 10 -6 6 3 10 3 10 -2 0 -4 13 -14 29 -21 16 -7 40 -23 55 -37
14 -13 39 -31 55 -41 17 -10 28 -21 25 -26 -3 -4 2 -8 11 -8 11 0 15 -5 11
-16 -3 -8 -2 -12 4 -9 6 3 10 1 10 -4 0 -6 7 -11 16 -11 8 0 12 -4 9 -10 -3
-6 -1 -10 4 -10 6 0 11 -6 11 -12 0 -7 14 -28 30 -45 17 -18 30 -35 30 -38 -2
-11 25 -65 32 -65 5 0 8 -5 8 -11 0 -5 -6 -7 -12 -4 -7 4 -6 1 3 -7 9 -7 14
-19 12 -25 -3 -7 1 -13 7 -13 7 0 10 -7 7 -15 -4 -8 -2 -17 3 -20 5 -3 7 -12
3 -20 -3 -8 -1 -15 4 -15 5 0 8 -15 7 -32 -1 -18 2 -39 8 -45 6 -8 6 -13 1
-13 -11 0 -8 -83 3 -101 5 -8 3 -9 -6 -4 -10 6 -12 3 -8 -13 4 -12 2 -24 -3
-27 -4 -3 -6 -12 -2 -20 3 -8 1 -15 -5 -15 -6 0 -8 -9 -5 -20 3 -12 0 -20 -6
-20 -7 0 -10 -4 -6 -9 3 -5 1 -12 -5 -16 -6 -4 -8 -10 -5 -15 8 -14 -6 -40
-19 -33 -6 4 -5 -1 3 -10 9 -12 10 -17 2 -17 -7 0 -9 -5 -5 -12 5 -8 11 -6 19
5 7 10 18 17 24 17 7 0 9 5 5 12 -5 7 -2 9 9 5 12 -4 15 -1 12 14 -3 15 0 19
10 15 8 -3 15 -1 15 5 0 6 7 17 15 26 8 8 13 18 10 23 -3 4 2 11 11 14 8 3 13
10 10 15 -4 5 -1 15 6 23 12 11 15 22 21 63 1 6 5 12 9 15 4 3 8 17 10 30 2
14 7 31 12 39 7 10 6 12 -4 6 -10 -6 -11 -4 -4 6 13 22 14 100 0 92 -8 -5 -8
-3 0 8 13 16 13 107 1 127 -5 6 -6 12 -2 12 3 0 1 9 -5 20 -8 15 -8 20 2 20 9
0 9 3 -2 10 -8 5 -12 10 -8 10 4 0 0 16 -8 35 -8 19 -11 35 -7 35 5 0 3 4 -2
8 -10 6 -38 63 -36 70 1 1 -5 10 -14 18 -8 9 -12 20 -9 26 4 7 2 8 -4 4 -7 -4
-12 -1 -12 9 0 9 -4 13 -10 10 -5 -3 -10 -2 -10 4 0 5 -21 30 -46 55 -25 25
-43 46 -39 46 3 0 0 6 -7 14 -7 8 -16 12 -20 9 -4 -2 -19 6 -32 19 -13 13 -29
24 -37 26 -7 2 -18 11 -25 20 -7 9 -18 17 -26 18 -7 0 -21 2 -31 2 -10 1 -15
6 -12 12 3 6 -1 7 -9 4 -9 -4 -16 -1 -16 6 0 7 -7 10 -15 6 -9 -3 -18 1 -21 9
-4 8 -12 15 -20 15 -8 0 -14 5 -14 12 0 6 -3 8 -7 5 -3 -4 -13 -1 -21 6 -13
10 -14 9 -8 -2 6 -9 1 -8 -16 3 -14 9 -28 13 -31 9 -4 -3 -7 -1 -7 5 0 7 -3
11 -7 11 -18 -3 -73 14 -73 23 0 5 -4 7 -9 3 -5 -3 -15 0 -23 7 -13 12 -26 17
-55 22 -7 1 -16 5 -19 9 -4 4 -20 7 -36 7 -15 0 -28 5 -28 10 0 6 -6 10 -12 8
-7 -1 -24 4 -36 11 -13 7 -26 10 -29 7 -4 -3 -12 3 -20 14 -7 10 -20 17 -28
14 -8 -3 -20 -2 -27 2 -7 5 -22 10 -33 11 -11 2 -24 8 -29 13 -6 6 -18 10 -28
10 -10 0 -18 4 -18 10 0 5 -7 7 -15 4 -8 -4 -15 -1 -15 6 0 6 -4 8 -10 5 -5
-3 -10 0 -10 8 0 10 -7 13 -20 10 -11 -3 -20 0 -20 6 0 6 -9 11 -20 11 -11 0
-20 5 -20 11 0 5 -4 7 -10 4 -5 -3 -10 0 -10 7 0 9 -3 9 -10 -2 -8 -13 -10
-12 -10 3 0 9 -7 17 -15 17 -8 0 -15 5 -15 10 0 6 -10 10 -22 10 -12 0 -18 3
-15 7 8 7 -34 39 -45 35 -5 -1 -8 7 -8 18 0 10 -9 24 -20 30 -11 6 -20 17 -20
26 0 8 -6 17 -12 19 -8 3 -13 24 -13 53 0 26 -4 50 -9 53 -5 4 -5 13 0 20 4 7
8 25 9 39 1 14 9 39 18 56 9 17 14 34 12 38 -3 3 -2 4 1 2 7 -5 51 37 47 46
-2 4 6 9 17 13 11 3 20 11 20 16 0 5 5 9 11 9 7 0 20 10 30 22 11 11 19 18 19
13 0 -4 7 -1 17 6 9 8 18 13 20 12 9 -7 24 -2 19 6 -4 5 3 7 14 4 11 -3 20 0
20 6 0 6 11 11 24 11 14 0 27 4 31 9 3 6 13 10 23 10 34 0 99 8 108 13 5 2 18
4 29 4 11 -1 23 4 27 9 5 7 8 7 8 0 0 -6 25 -10 55 -9 33 0 55 -4 55 -10 0 -6
5 -4 10 4 5 8 10 10 10 4 0 -6 12 -11 28 -11 77 -1 93 -3 86 -14 -4 -8 -1 -8
12 -1 14 7 25 6 38 -4 10 -7 23 -11 27 -8 5 3 9 0 9 -7 0 -6 8 -9 20 -6 11 3
20 1 20 -5 0 -5 4 -7 9 -3 5 3 13 0 16 -6 4 -5 13 -8 21 -5 7 3 18 -3 23 -12
7 -11 11 -12 11 -4 0 8 14 2 37 -15 20 -15 34 -21 29 -13 -7 13 -6 13 6 0 7
-8 25 -21 40 -29 15 -8 25 -18 22 -23 -3 -4 0 -9 5 -9 6 -1 17 -2 23 -3 7 0
19 -13 26 -28 7 -16 17 -28 23 -28 5 0 9 -7 9 -15 0 -8 5 -15 10 -15 6 0 10
-9 10 -20 0 -11 5 -20 11 -20 6 0 9 -7 6 -15 -4 -8 -1 -17 5 -21 7 -5 8 -2 3
6 -5 9 -4 11 4 6 6 -4 9 -12 5 -17 -3 -5 -2 -15 3 -22 5 -7 9 -19 8 -27 0 -8
3 -18 7 -21 5 -3 9 -27 10 -52 0 -26 5 -47 10 -47 5 0 6 -5 2 -12 -5 -8 -2 -9
9 -5 9 3 19 2 22 -4 9 -14 27 1 21 17 -3 8 -1 14 4 14 12 0 8 103 -5 112 -6 5
-5 8 4 8 11 0 11 3 0 17 -12 14 -12 16 0 8 11 -6 12 -5 5 6 -13 22 -14 100 0
92 8 -5 8 -3 0 8 -7 8 -12 32 -11 55 0 22 -3 45 -7 52 -4 7 -2 12 4 12 6 0 8
5 4 12 -4 7 -7 34 -7 60 1 34 -2 46 -10 41 -8 -4 -8 -1 1 9 9 11 10 23 2 42
-6 18 -6 25 0 21 6 -3 10 -2 10 4 0 5 -4 12 -10 16 -5 3 -7 12 -4 20 7 17 -23
35 -57 35 -5 0 -7 6 -3 13 6 9 5 9 -7 0 -9 -7 -20 -8 -29 -3 -8 5 -18 6 -22 4
-4 -3 -8 -1 -8 4 0 5 -12 8 -27 6 -15 -1 -33 2 -40 7 -7 6 -16 8 -21 5 -5 -3
-21 1 -36 9 -14 8 -24 10 -21 5 3 -5 -4 -8 -15 -7 -11 1 -20 5 -20 9 0 4 -9 5
-20 3 -11 -2 -22 0 -25 5 -3 4 -14 6 -25 3 -11 -3 -27 0 -35 7 -11 9 -15 9
-15 1 0 -7 -5 -9 -12 -5 -7 4 -41 9 -76 10 -35 1 -79 5 -99 9 -27 5 -33 3 -27
-7 6 -10 4 -10 -9 1 -9 7 -17 10 -17 6 0 -4 -8 -1 -17 6 -14 12 -15 12 -9 0z"/>
<path d="M1790 4075 c0 -6 -35 -10 -87 -9 -49 1 -94 -3 -100 -9 -9 -6 -13 -5
-13 4 0 9 -3 10 -8 4 -6 -10 -39 -15 -95 -16 -9 0 -15 -4 -13 -8 3 -4 -5 -7
-17 -6 -12 1 -26 0 -32 -4 -5 -3 -19 -6 -30 -7 -11 0 -37 -8 -59 -17 -21 -9
-42 -17 -47 -17 -5 0 -9 -4 -9 -8 0 -7 -16 -11 -58 -14 -7 -1 -10 -8 -7 -17 3
-8 3 -13 0 -9 -11 10 -66 -13 -58 -25 3 -5 1 -7 -4 -4 -6 4 -21 -2 -34 -12
-13 -10 -30 -16 -38 -13 -10 3 -12 0 -8 -12 6 -14 -3 -21 -25 -17 -5 0 -8 -4
-8 -10 0 -5 -5 -7 -12 -3 -6 4 -8 3 -4 -4 3 -5 -12 -25 -34 -42 -22 -17 -37
-37 -34 -42 4 -6 3 -8 -3 -5 -5 3 -17 -3 -26 -14 -9 -10 -14 -19 -10 -19 3 0
-5 -9 -18 -21 -13 -12 -23 -25 -21 -30 1 -5 -5 -12 -13 -15 -8 -3 -12 -10 -9
-15 3 -5 0 -9 -5 -9 -6 0 -11 -5 -11 -11 0 -7 -8 -18 -17 -26 -10 -8 -13 -12
-7 -9 6 3 4 -9 -5 -28 -9 -19 -20 -31 -25 -28 -5 3 -7 -2 -3 -11 3 -10 2 -17
-3 -17 -6 0 -10 -7 -10 -15 0 -8 -4 -15 -9 -15 -5 0 -8 -8 -7 -17 2 -10 -1
-21 -7 -24 -5 -4 -9 -18 -9 -33 0 -14 -6 -26 -13 -26 -7 0 -11 -10 -10 -25 2
-14 0 -25 -5 -25 -5 0 -7 -12 -5 -26 1 -15 -3 -28 -12 -31 -12 -5 -12 -7 -1
-14 8 -6 9 -9 1 -9 -6 0 -10 -11 -8 -25 1 -14 -1 -25 -5 -25 -4 0 -8 -12 -8
-27 0 -37 -7 -76 -15 -89 -3 -6 -5 -21 -2 -33 2 -11 -1 -21 -6 -21 -6 0 -6 -8
1 -20 6 -12 7 -20 1 -20 -5 0 -8 -8 -6 -17 1 -10 -2 -24 -8 -30 -6 -9 -6 -13
2 -13 7 0 9 -5 4 -12 -11 -19 -12 -37 -2 -44 5 -3 5 -12 0 -22 -5 -9 -8 -34
-7 -55 2 -20 -1 -37 -6 -37 -4 0 -8 -5 -8 -11 0 -5 5 -7 11 -3 8 4 9 -1 4 -16
-5 -17 -4 -21 6 -16 8 4 6 1 -4 -7 -10 -8 -14 -18 -9 -21 4 -3 7 -21 6 -40 -2
-20 1 -38 7 -42 7 -4 6 -10 -1 -19 -8 -10 -8 -19 -1 -34 8 -14 8 -22 1 -26 -8
-5 -7 -12 2 -23 11 -13 11 -14 -2 -7 -13 8 -13 6 -1 -8 7 -9 11 -24 7 -32 -3
-8 0 -15 6 -15 7 0 7 -4 -1 -14 -7 -9 -8 -17 -2 -20 5 -3 8 -17 6 -31 -1 -14
1 -25 4 -25 3 0 7 -15 8 -32 4 -52 6 -58 17 -58 6 0 4 -5 -4 -10 -11 -7 -11
-10 -2 -10 7 0 11 -4 8 -9 -3 -4 1 -17 8 -27 10 -13 11 -24 4 -38 -7 -13 -7
-16 1 -12 6 4 11 1 11 -7 0 -8 7 -28 16 -45 8 -18 12 -37 8 -43 -4 -8 -3 -9 4
-5 8 5 12 0 12 -13 0 -11 6 -26 13 -33 8 -7 13 -21 11 -30 -1 -9 5 -19 13 -22
8 -3 11 -10 8 -16 -3 -5 -1 -10 4 -10 6 0 11 -7 11 -15 0 -8 4 -15 8 -15 5 0
14 -11 20 -24 11 -25 38 -60 79 -101 12 -13 19 -26 16 -29 -4 -3 -2 -6 4 -6
15 0 63 -47 56 -54 -4 -3 4 -6 16 -6 12 0 19 -4 16 -10 -3 -5 1 -10 9 -10 9 0
16 -4 16 -10 0 -5 7 -10 15 -10 8 0 15 -4 15 -10 0 -5 7 -10 15 -10 8 0 15 -4
15 -9 0 -5 11 -12 25 -15 14 -4 23 -11 20 -16 -3 -5 4 -7 15 -5 11 2 20 0 20
-6 0 -5 9 -9 20 -9 11 0 20 -5 20 -11 0 -5 4 -7 10 -4 5 3 10 1 10 -5 0 -7 6
-10 14 -7 8 3 16 2 18 -3 2 -5 12 -11 23 -13 11 -1 26 -6 33 -10 7 -5 12 -3
12 5 0 9 3 9 10 -2 5 -8 10 -11 10 -6 0 6 6 2 13 -9 10 -13 16 -15 21 -6 4 6
13 8 19 4 12 -8 61 -14 130 -16 20 -1 37 -5 37 -9 0 -5 9 -4 20 2 15 8 20 8
20 -1 0 -8 4 -8 15 1 12 10 15 10 15 0 0 -10 3 -10 15 0 12 10 15 10 15 0 0
-10 3 -10 15 0 11 9 15 9 15 1 0 -7 5 -9 13 -4 6 4 35 8 62 9 28 2 51 3 53 4
1 2 5 3 10 4 4 1 12 5 19 9 6 4 15 2 19 -4 4 -8 8 -8 13 0 4 6 21 11 39 13 18
1 32 6 32 11 0 4 4 6 9 3 5 -4 22 -1 38 6 15 6 36 12 45 13 10 1 24 8 32 14
11 9 15 9 19 -1 4 -11 6 -10 6 0 1 7 6 10 11 7 6 -3 10 -1 10 6 0 7 3 9 7 6 3
-4 12 -2 18 3 7 6 24 11 38 12 14 1 23 6 21 10 -3 4 4 8 15 8 11 0 23 5 26 10
4 6 11 8 16 5 14 -9 26 33 23 86 -1 32 2 47 9 42 6 -4 7 -1 1 8 -13 21 -14 39
-1 39 9 0 9 2 0 8 -12 8 -13 29 0 49 4 6 3 15 -3 18 -8 5 -7 11 1 21 6 8 7 14
2 14 -5 0 -9 41 -8 94 0 52 -3 92 -7 90 -4 -2 -3 9 2 25 6 21 5 31 -3 35 -7 2
-8 5 -1 5 6 1 9 21 7 52 -3 39 -1 49 9 44 7 -3 4 1 -6 9 -11 9 -16 16 -10 16
5 0 9 29 8 65 0 40 4 65 10 65 8 0 8 3 1 8 -14 9 -16 74 -2 65 6 -4 7 -1 3 6
-12 19 -14 61 -3 61 5 0 4 7 -3 15 -9 11 -9 15 -1 15 9 0 9 5 1 20 -8 14 -8
20 0 20 6 0 8 5 4 12 -9 15 -12 58 -3 58 3 0 6 7 6 15 0 8 -5 15 -11 15 -7 0
-7 3 -1 8 12 8 15 73 3 66 -4 -3 -8 7 -8 21 0 15 -4 24 -10 20 -5 -3 -10 -2
-10 2 0 9 -9 11 -97 14 -30 1 -53 7 -53 13 0 7 -3 7 -8 -1 -9 -14 -62 -12 -62
2 0 6 -5 3 -10 -5 -8 -12 -10 -12 -10 -1 0 11 -3 11 -17 0 -13 -11 -15 -11 -9
-1 6 10 3 13 -10 11 -11 -2 -25 0 -31 4 -7 5 -13 4 -13 0 0 -5 -25 -8 -55 -7
-30 1 -55 -2 -55 -6 0 -17 39 -50 59 -50 11 0 21 -4 21 -10 0 -5 6 -9 13 -7 6
1 11 -3 10 -10 -2 -7 4 -10 12 -7 9 4 15 0 15 -10 0 -14 12 -20 33 -17 4 0 7
-6 7 -14 0 -9 7 -18 15 -21 8 -4 13 -10 10 -14 -3 -5 2 -16 11 -24 8 -9 13
-16 9 -16 -3 0 -1 -9 5 -19 5 -11 11 -31 12 -45 1 -15 5 -26 8 -26 6 0 7 -19
12 -162 3 -71 0 -108 -6 -108 -8 0 -8 -3 0 -8 6 -4 10 -40 9 -85 -1 -43 3 -81
7 -83 5 -3 5 -11 1 -17 -4 -7 -9 -34 -9 -62 -4 -104 -8 -136 -16 -141 -5 -3
-3 -13 4 -22 7 -9 8 -13 2 -9 -11 6 -28 -26 -25 -45 1 -5 -3 -8 -9 -8 -6 0 -9
-3 -8 -7 2 -5 -7 -18 -19 -30 -13 -13 -23 -20 -23 -16 0 3 -8 -4 -19 -15 -10
-12 -21 -18 -25 -15 -4 4 -11 1 -15 -6 -5 -7 -20 -14 -34 -14 -14 -1 -23 -5
-20 -9 2 -5 1 -9 -4 -9 -78 -13 -98 -17 -117 -25 -15 -6 -17 -4 -11 7 7 12 6
12 -7 1 -12 -10 -43 -13 -107 -10 -50 2 -91 0 -91 -4 0 -4 -10 -4 -22 0 -13 5
-30 8 -38 7 -8 0 -18 4 -22 10 -5 6 -8 5 -8 -4 0 -9 -4 -10 -12 -4 -7 5 -29
10 -48 12 -19 2 -43 10 -52 18 -9 8 -22 12 -27 8 -6 -3 -11 -2 -11 3 0 6 -12
13 -27 17 -16 3 -37 14 -47 23 -15 13 -18 14 -12 2 4 -8 1 -7 -8 4 -8 10 -19
15 -25 12 -5 -4 -12 3 -16 14 -3 11 -13 20 -21 20 -8 0 -12 5 -9 10 3 5 0 10
-7 10 -16 0 -128 120 -128 137 0 7 -4 13 -8 13 -4 0 -16 14 -25 30 -10 17 -15
30 -12 30 4 0 -1 7 -9 16 -9 8 -14 20 -11 25 4 5 3 9 -2 9 -8 0 -46 107 -44
123 1 4 -6 21 -15 38 -8 17 -13 37 -10 44 2 7 2 16 -2 19 -3 4 -7 15 -9 26 -2
11 -4 28 -6 38 -1 9 -6 22 -10 29 -4 6 -1 14 5 16 10 4 10 6 0 6 -7 1 -10 6
-7 11 3 6 1 10 -6 10 -10 0 -10 3 -2 11 7 7 8 20 4 33 -4 11 -7 28 -6 36 1 8
-3 21 -8 28 -6 8 -6 12 1 12 6 0 9 6 6 13 -11 29 -11 97 0 97 7 0 6 4 -2 9 -8
4 -11 19 -8 34 3 15 0 27 -6 27 -6 0 -7 5 -2 13 5 6 9 54 9 104 0 51 2 93 5
93 3 0 5 28 5 63 0 40 5 69 15 81 9 12 10 16 3 12 -7 -4 -13 -2 -13 3 0 6 4
11 9 11 4 0 7 11 6 25 -2 14 1 25 7 25 6 0 5 6 -2 15 -9 10 -9 15 -1 15 6 0
11 14 11 30 0 17 5 30 10 30 6 0 10 5 10 11 0 5 -6 7 -12 3 -10 -6 -10 -5 -1
8 7 8 10 18 6 21 -3 4 -1 7 6 7 7 0 10 4 6 9 -3 5 1 16 9 24 8 8 12 17 9 21
-3 3 -1 12 5 19 7 8 9 17 5 20 -3 4 -1 7 5 7 6 0 9 7 6 15 -4 8 -1 15 6 15 6
0 10 6 8 12 -3 7 5 21 16 31 12 10 15 15 8 12 -11 -6 -11 -3 0 14 7 12 16 21
20 21 5 0 8 5 8 10 0 18 43 70 52 64 5 -3 7 -2 6 3 -4 11 27 54 34 48 3 -3 11
2 19 12 12 14 12 16 0 8 -10 -6 -12 -4 -7 4 5 7 15 10 23 7 8 -3 11 -2 8 4 -3
5 4 14 15 20 11 6 17 16 14 22 -4 7 -3 8 4 4 7 -4 24 5 39 21 14 15 22 21 18
14 -5 -9 5 -5 22 7 17 12 35 22 40 22 4 1 26 9 48 20 22 10 43 16 47 14 5 -3
8 0 8 6 0 7 7 9 16 6 9 -4 13 -2 8 5 -4 8 1 9 15 4 11 -3 21 -2 21 2 0 5 15 9
33 8 17 -1 39 2 47 6 30 13 100 18 94 6 -3 -7 1 -4 9 6 10 12 17 14 22 8 4 -8
12 -8 26 -1 13 8 19 7 19 0 0 -6 5 -8 13 -3 18 11 37 13 37 2 0 -5 12 -4 27 2
20 7 28 6 35 -3 6 -11 8 -11 8 0 0 10 5 10 21 1 12 -6 29 -9 39 -6 9 2 25 0
35 -6 14 -7 16 -7 9 4 -6 11 -5 12 7 2 8 -6 17 -12 22 -12 4 -1 8 -1 10 -2 10
-3 46 -9 65 -11 12 -1 22 -6 22 -11 0 -4 5 -5 10 -2 6 3 10 1 10 -5 0 -6 5 -8
10 -5 6 3 10 1 10 -5 0 -6 5 -8 11 -5 5 4 19 -1 29 -10 10 -9 24 -14 29 -10 6
3 11 1 11 -5 0 -6 5 -8 10 -5 6 3 10 2 10 -3 0 -6 14 -15 31 -21 20 -7 28 -15
23 -23 -4 -7 -4 -10 0 -6 14 12 126 -67 126 -89 0 -7 5 -13 10 -13 6 0 15 -11
22 -25 6 -13 15 -22 19 -19 5 3 9 -2 9 -11 0 -9 4 -14 8 -11 4 2 9 -5 9 -17 1
-12 7 -23 13 -25 5 -2 10 -13 10 -23 0 -11 4 -18 9 -14 6 3 8 -3 6 -14 -2 -11
3 -22 11 -25 9 -3 12 -10 9 -16 -3 -5 0 -10 7 -10 10 0 10 -2 -1 -9 -11 -7
-10 -11 5 -20 12 -6 14 -11 5 -11 -10 0 -11 -3 -2 -13 6 -8 8 -16 6 -19 -3 -3
3 -8 15 -11 39 -10 48 15 47 123 -1 55 -4 100 -7 100 -3 0 -6 9 -6 20 0 11 5
20 11 20 5 0 3 5 -5 10 -13 9 -13 11 0 20 8 5 10 10 4 10 -7 0 -11 44 -11 124
-1 129 -7 166 -25 166 -6 0 -17 8 -24 18 -10 12 -13 13 -14 3 0 -11 -3 -11
-16 -1 -8 8 -29 15 -47 17 -17 2 -35 9 -39 16 -4 6 -8 8 -8 3 0 -4 -12 -1 -26
9 -17 11 -24 12 -18 4 5 -9 -2 -8 -19 4 -17 11 -27 13 -27 6 0 -8 -4 -9 -13 0
-8 6 -16 8 -20 5 -3 -3 -15 0 -27 6 -18 10 -21 10 -14 -2 5 -8 0 -7 -18 4 -19
12 -28 14 -37 5 -8 -8 -11 -6 -12 8 0 11 -3 14 -6 7 -2 -6 -10 -9 -16 -5 -13
8 -28 10 -97 14 -25 1 -51 7 -59 13 -12 9 -13 8 -6 -4 8 -13 7 -13 -8 -1 -14
11 -17 11 -17 0 0 -9 -3 -10 -8 -4 -8 12 -37 13 -48 2 -4 -4 -13 -2 -21 5 -7
6 -16 8 -20 5 -3 -4 -15 -2 -26 4 -14 8 -18 8 -13 0 9 -14 -36 -10 -46 4 -5 7
-8 7 -8 0z"/>
<path d="M710 3785 c-7 -8 -19 -15 -28 -15 -8 0 -12 -3 -9 -6 10 -10 -12 -44
-28 -44 -8 0 -19 -8 -24 -17 -6 -10 -11 -14 -11 -10 0 4 -6 2 -14 -5 -8 -7
-12 -17 -9 -21 3 -5 -4 -11 -16 -14 -11 -3 -19 -9 -16 -13 3 -4 -2 -11 -11
-14 -9 -4 -14 -9 -12 -12 3 -3 -9 -21 -28 -41 -19 -19 -31 -39 -29 -44 3 -4
-4 -10 -15 -14 -11 -4 -18 -10 -15 -15 3 -5 -2 -15 -10 -23 -8 -9 -15 -21 -15
-27 0 -6 -5 -8 -10 -5 -6 4 -9 3 -8 -2 4 -16 -14 -53 -23 -47 -5 3 -9 2 -8 -3
3 -19 -2 -34 -10 -29 -5 4 -7 -3 -4 -14 3 -12 0 -20 -6 -20 -7 0 -10 -4 -6 -9
3 -5 1 -12 -5 -16 -6 -4 -8 -11 -5 -16 4 -5 1 -9 -5 -9 -6 0 -8 -5 -4 -11 3
-6 1 -15 -5 -19 -7 -4 -13 -17 -14 -28 -1 -12 -5 -22 -9 -22 -4 0 -5 -7 -2
-15 4 -8 2 -15 -4 -15 -6 0 -9 -8 -8 -17 2 -10 -4 -29 -13 -43 -10 -14 -11
-21 -3 -17 6 5 12 4 12 -2 0 -5 -4 -12 -9 -16 -6 -3 -8 -14 -6 -25 2 -11 0
-20 -4 -20 -4 0 -8 -13 -9 -30 -3 -58 -5 -65 -16 -72 -7 -5 -7 -8 2 -8 7 0 10
-5 7 -10 -4 -6 -8 -24 -10 -41 -3 -21 -1 -28 8 -22 9 5 9 3 1 -8 -12 -15 -14
-193 -1 -205 4 -4 1 -14 -6 -22 -6 -9 -7 -13 -1 -9 7 4 11 -10 13 -39 0 -25 5
-54 11 -63 6 -12 5 -22 -3 -31 -9 -10 -9 -11 1 -6 11 7 16 -11 15 -51 -1 -7 3
-13 8 -13 5 0 8 -3 7 -7 -3 -16 24 -98 36 -105 8 -6 8 -8 -2 -8 -10 0 -10 -4
0 -22 7 -13 15 -25 18 -28 3 -3 6 -12 8 -20 2 -8 10 -18 17 -23 8 -4 12 -14 9
-22 -4 -8 -1 -15 5 -15 6 0 11 -3 10 -7 -3 -18 14 -52 27 -57 8 -3 14 -12 14
-21 0 -8 7 -15 15 -15 9 0 12 -6 8 -17 -4 -11 -3 -14 5 -9 7 4 12 1 12 -8 0
-9 5 -16 10 -16 6 0 10 -7 10 -15 0 -8 5 -15 10 -15 6 0 10 -7 10 -16 0 -8 4
-12 10 -9 5 3 10 2 10 -3 0 -4 10 -19 22 -32 13 -14 22 -28 20 -33 -1 -5 2 -6
7 -3 5 4 16 -3 24 -14 7 -11 17 -17 20 -13 7 6 11 -12 8 -30 -1 -5 3 -6 9 -2
5 3 10 2 10 -3 0 -16 32 -24 44 -11 8 9 7 11 -4 7 -11 -4 -16 3 -17 25 -1 17
-8 34 -15 39 -7 4 -9 8 -5 8 5 0 1 7 -7 16 -9 8 -14 20 -11 25 4 5 1 9 -5 9
-6 0 -8 5 -5 10 3 6 2 10 -2 10 -5 0 -14 9 -21 21 -11 17 -11 20 0 13 7 -4 3
5 -10 20 -12 16 -19 32 -17 36 3 5 1 11 -5 15 -6 4 -8 11 -5 16 4 5 2 9 -2 9
-5 0 -14 9 -21 21 -8 12 -9 18 -3 14 15 -8 14 0 -3 33 -7 15 -12 35 -11 45 2
9 -1 17 -5 17 -5 0 -9 8 -9 18 0 18 -8 86 -13 112 -2 8 -8 21 -12 29 -7 10 -5
12 4 6 9 -5 10 -2 6 13 -4 12 -8 38 -10 60 -2 21 -6 44 -10 50 -3 6 -2 14 4
17 7 4 8 11 1 18 -5 7 -9 83 -8 180 1 103 -2 169 -8 171 -7 3 -7 5 0 5 6 1 9
28 9 63 -1 38 3 66 10 70 8 5 7 8 -3 8 -9 0 -10 4 -4 13 5 6 11 28 12 47 1 19
3 44 6 55 2 11 4 28 4 38 1 12 6 16 14 11 9 -5 9 -4 0 6 -9 10 -9 20 2 46 7
18 11 35 7 38 -3 3 -1 6 5 6 6 0 9 9 5 22 -3 12 -1 19 4 15 6 -3 10 11 9 33
-1 21 3 36 7 34 4 -3 8 -2 9 3 3 32 11 58 19 61 5 2 6 10 3 18 -3 8 0 14 7 14
6 0 9 4 5 9 -3 5 -1 12 5 16 6 4 8 11 5 16 -4 5 -1 9 5 9 6 0 8 5 5 10 -3 6
-1 10 5 10 6 0 9 4 5 9 -3 5 2 17 11 25 8 9 13 16 9 16 -4 0 1 7 9 16 9 8 14
19 11 24 -3 4 2 13 10 20 8 7 12 16 9 21 -3 5 0 9 5 9 6 0 10 6 9 13 -2 6 3
11 11 9 8 -2 11 3 8 13 -4 8 -2 15 2 15 13 0 23 32 13 42 -5 5 -14 2 -22 -7z"/>
<path d="M3235 3599 c-4 -6 -13 -8 -19 -6 -7 3 -13 -1 -14 -9 -1 -8 -3 -21 -4
-29 -1 -8 -5 -15 -10 -15 -4 0 -7 -6 -5 -12 1 -7 -3 -12 -9 -11 -6 1 -10 -9
-8 -22 1 -14 -1 -25 -6 -25 -9 0 -21 -33 -26 -74 -2 -17 -10 -33 -17 -38 -7
-4 -8 -8 -1 -8 14 0 14 -30 0 -30 -6 0 -4 -5 4 -10 13 -9 13 -10 0 -10 -13 0
-13 -1 0 -10 9 -6 10 -10 3 -10 -11 0 -10 -36 2 -48 2 -3 0 -11 -6 -19 -9 -10
-8 -13 1 -13 10 0 10 -3 1 -14 -9 -10 -9 -15 0 -18 6 -2 11 -20 12 -41 0 -20
3 -34 6 -32 2 3 13 -14 23 -37 10 -22 16 -43 14 -46 -3 -2 0 -10 7 -17 26 -28
47 -56 47 -63 0 -4 9 -15 20 -25 12 -10 18 -23 14 -29 -4 -7 -3 -8 4 -4 7 4
12 2 12 -4 0 -6 5 -8 10 -5 6 3 10 2 10 -4 0 -15 52 -61 62 -55 4 3 8 -2 8
-11 0 -9 5 -13 10 -10 6 3 10 1 10 -4 0 -6 6 -11 14 -11 7 0 19 -7 26 -15 7
-8 16 -12 21 -9 5 3 9 -3 10 -13 0 -10 3 -13 5 -7 3 8 20 4 50 -12 25 -13 52
-24 60 -24 7 0 14 -5 14 -11 0 -5 4 -8 8 -5 5 3 22 -2 38 -11 16 -9 39 -15 52
-14 15 0 21 -3 16 -10 -4 -7 -1 -10 7 -7 8 3 22 -2 32 -10 15 -13 20 -14 26
-3 6 10 10 9 15 -4 3 -10 12 -15 21 -11 8 3 15 1 15 -4 0 -6 9 -10 20 -10 11
0 20 -4 20 -8 0 -4 15 -9 33 -10 17 -2 34 -7 35 -12 2 -6 8 -8 13 -4 5 3 9 1
9 -5 0 -6 7 -8 15 -5 8 4 27 -2 41 -11 15 -9 23 -12 20 -6 -5 7 -1 9 8 5 9 -3
16 -10 16 -16 0 -5 5 -6 10 -3 6 3 10 1 10 -5 0 -6 5 -8 10 -5 6 3 10 1 10 -6
0 -7 3 -9 7 -6 3 4 17 0 31 -9 17 -11 22 -12 17 -3 -6 11 -5 12 6 2 7 -7 21
-13 32 -13 10 0 25 -7 34 -15 8 -8 19 -13 24 -10 5 4 9 1 9 -4 0 -6 7 -11 15
-11 8 0 15 -4 15 -10 0 -5 11 -10 25 -10 17 0 25 -6 25 -17 0 -15 2 -16 10 -3
6 9 10 10 10 3 0 -6 9 -15 20 -18 11 -4 18 -11 15 -16 -3 -5 1 -6 9 -3 11 4
16 0 16 -10 0 -15 12 -21 35 -16 6 1 7 -1 3 -5 -4 -4 4 -17 18 -30 13 -12 24
-25 24 -29 0 -4 7 -15 16 -23 8 -9 13 -24 11 -34 -3 -10 -1 -19 4 -21 5 -2 10
-19 12 -38 2 -19 6 -40 10 -47 4 -6 2 -15 -4 -19 -8 -4 -7 -9 2 -15 8 -5 9 -9
4 -9 -6 0 -10 -20 -9 -45 1 -25 -2 -45 -6 -45 -4 0 -7 -8 -7 -17 0 -35 -3 -44
-13 -38 -6 3 -7 -1 -4 -10 4 -9 -1 -22 -12 -31 -11 -9 -13 -12 -6 -9 11 6 11
3 1 -13 -7 -12 -17 -18 -21 -16 -4 3 -8 -2 -8 -10 0 -9 -4 -16 -10 -16 -5 0
-10 -7 -10 -16 0 -8 -3 -13 -7 -11 -9 6 -34 -19 -27 -26 3 -2 -7 -8 -21 -11
-14 -4 -23 -11 -20 -16 3 -5 -6 -12 -20 -16 -14 -3 -25 -10 -25 -16 0 -5 -4
-6 -10 -3 -5 3 -10 2 -10 -3 0 -6 -7 -13 -16 -16 -10 -4 -13 -2 -8 6 4 6 -3 4
-15 -5 -13 -8 -30 -13 -37 -10 -8 3 -14 1 -14 -4 0 -5 -19 -10 -41 -11 -23 -1
-48 -7 -55 -12 -8 -8 -14 -8 -19 0 -5 8 -11 8 -21 -1 -10 -8 -14 -8 -14 0 0 7
-8 8 -25 1 -14 -5 -25 -6 -25 -2 0 4 -9 8 -20 9 -13 1 -18 -2 -14 -9 5 -7 2
-8 -7 -3 -14 9 -20 10 -76 16 -18 2 -33 6 -33 9 0 3 -15 6 -32 7 -18 2 -34 7
-36 12 -2 6 -10 7 -18 4 -8 -3 -14 1 -14 8 0 7 -3 9 -7 6 -3 -4 -12 1 -20 11
-8 9 -12 11 -8 5 3 -8 -6 -6 -24 5 -17 9 -31 20 -31 24 0 4 -7 4 -17 1 -12 -5
-14 -3 -8 7 5 8 4 11 -3 6 -10 -6 -31 7 -68 42 -8 7 -14 10 -14 5 0 -4 -9 5
-19 20 -10 16 -22 29 -27 30 -5 1 -8 5 -7 9 2 4 -6 10 -17 13 -11 4 -20 13
-20 21 0 8 -4 12 -10 9 -5 -3 -10 -3 -10 2 0 7 -28 45 -62 84 -8 8 -13 20 -11
26 2 6 -3 18 -12 27 -9 9 -13 16 -8 16 4 0 1 6 -7 13 -15 12 -22 30 -23 55 0
6 -5 12 -11 12 -6 0 -5 4 2 9 11 7 10 9 -3 15 -9 3 -14 10 -10 15 3 5 1 12 -4
15 -6 4 -6 19 0 39 11 40 11 46 -1 27 -8 -12 -10 -10 -11 10 -1 14 -1 33 0 43
3 23 -53 27 -74 5 -7 -8 -6 -9 3 -4 13 8 17 -6 5 -18 -4 -4 -8 -43 -9 -86 -1
-43 -5 -84 -9 -89 -3 -6 -1 -11 5 -11 6 0 8 -5 5 -10 -4 -6 -2 -17 5 -25 8 -9
8 -20 2 -32 -7 -12 -7 -25 -1 -36 6 -9 6 -17 2 -17 -5 0 -9 -9 -9 -19 0 -11 3
-18 6 -16 4 2 7 -26 8 -63 1 -37 3 -79 6 -94 2 -16 -1 -28 -7 -28 -6 0 -2 -6
8 -14 17 -12 18 -16 5 -31 -8 -10 -13 -21 -12 -24 19 -32 23 -43 14 -37 -6 4
-10 -2 -9 -14 1 -11 5 -20 10 -20 5 0 4 -7 -3 -15 -8 -10 -9 -15 -2 -15 6 0 9
-7 6 -15 -4 -10 0 -15 11 -15 9 0 14 -4 11 -8 -3 -4 5 -8 17 -9 79 -2 88 -3
81 -15 -5 -10 -4 -10 6 -1 9 8 19 9 32 2 13 -7 18 -6 18 3 0 8 3 9 8 3 8 -12
28 -18 60 -18 12 -1 22 -3 22 -6 0 -4 15 -7 33 -9 47 -3 60 -6 76 -16 10 -7
12 -6 6 4 -6 10 -4 11 6 4 16 -10 29 -13 79 -18 19 -2 43 -7 52 -11 9 -4 21
-4 27 -1 5 3 12 0 14 -6 4 -10 6 -10 6 0 1 9 6 10 19 4 9 -5 29 -8 45 -7 15 1
27 -2 27 -7 0 -11 23 -6 32 7 5 6 8 5 8 -2 0 -7 7 -10 17 -6 12 5 14 3 8 -8
-6 -11 -5 -12 6 -1 16 15 33 16 23 0 -4 -6 -3 -8 3 -5 5 3 31 7 59 8 27 1 55
6 62 12 8 6 12 6 12 -2 0 -8 6 -9 18 -3 9 4 27 7 40 6 12 0 22 3 22 9 0 5 7 4
15 -3 11 -9 15 -9 15 -1 0 7 5 9 10 6 6 -3 10 0 10 7 0 9 3 9 10 -2 8 -12 10
-12 10 -1 0 8 7 11 20 8 11 -3 23 -1 26 4 3 5 10 6 16 3 7 -4 8 -2 4 4 -4 7
-2 13 3 13 6 1 15 2 21 3 5 0 18 9 30 18 11 10 20 15 20 13 0 -3 10 1 23 10
13 8 27 12 32 8 4 -5 5 -2 1 5 -4 7 0 15 11 19 10 4 26 16 37 27 10 12 22 20
27 18 5 -1 8 4 7 10 -2 7 3 12 10 10 8 -1 11 2 7 8 -3 5 -1 10 4 10 6 0 11 7
11 15 0 8 5 15 11 15 5 0 8 4 4 9 -3 5 4 13 16 16 11 4 18 9 15 12 -3 3 3 17
14 30 10 13 16 31 13 39 -3 9 0 14 8 12 8 -2 13 3 11 10 -1 6 2 12 7 12 6 0 8
9 6 20 -2 11 0 18 4 16 4 -3 13 18 21 47 7 29 15 58 18 66 4 10 1 12 -8 6 -9
-6 -8 -1 3 15 11 16 13 29 6 47 -6 16 -5 22 1 18 12 -8 12 -8 1 33 -6 20 -6
30 0 27 5 -4 9 -2 9 4 0 5 -4 11 -9 13 -6 2 -11 22 -12 46 -2 23 -6 42 -9 42
-3 0 -7 14 -8 32 -2 18 -6 35 -11 38 -15 9 -40 67 -33 75 4 5 3 6 -3 3 -12 -6
-46 27 -37 36 3 3 -2 6 -11 6 -10 0 -16 6 -15 13 2 6 -3 11 -10 9 -8 -1 -11 2
-8 7 3 5 -2 15 -11 22 -14 12 -16 12 -9 -1 4 -9 2 -8 -7 2 -8 10 -17 15 -20
11 -4 -3 -7 -1 -7 6 0 7 -5 9 -10 6 -6 -4 -9 -1 -8 6 2 6 -19 24 -47 38 -27
14 -58 34 -69 44 -11 9 -25 17 -32 17 -7 0 -14 4 -16 10 -1 5 -15 11 -30 12
-16 1 -28 6 -28 10 0 4 -9 8 -20 8 -11 0 -20 5 -20 11 0 5 -4 8 -9 5 -5 -3
-14 1 -21 9 -7 8 -26 15 -42 15 -17 0 -27 4 -23 10 4 6 3 9 -2 8 -16 -5 -123
25 -133 38 -6 6 -20 9 -32 6 -14 -3 -19 -1 -14 6 5 8 -1 12 -18 12 -14 0 -28
5 -31 10 -3 6 -17 8 -31 6 -13 -3 -24 0 -24 5 0 6 -4 7 -10 4 -5 -3 -10 -2
-10 2 0 8 -15 12 -57 15 -7 1 -13 5 -13 9 0 4 -7 10 -16 13 -10 4 -13 2 -8 -7
4 -6 -2 -4 -13 6 -11 9 -27 17 -37 17 -11 0 -15 5 -10 13 4 6 4 9 -1 5 -4 -4
-15 -2 -23 5 -13 10 -14 9 -7 -3 7 -12 6 -13 -7 -3 -8 7 -18 10 -21 6 -4 -3
-7 -1 -7 5 0 6 -16 16 -35 22 -21 7 -32 16 -29 22 4 6 2 8 -4 4 -6 -3 -16 0
-24 7 -7 7 -25 18 -40 24 -16 7 -28 17 -28 23 0 5 -5 10 -11 10 -12 0 -78 68
-72 74 3 2 -5 7 -16 11 -19 6 -26 17 -22 38 1 5 -3 6 -8 3 -5 -4 -15 7 -23 24
-7 16 -16 30 -20 30 -5 0 -8 7 -8 16 0 8 -7 22 -16 31 -8 9 -13 21 -10 29 3 7
1 14 -4 16 -4 2 -9 17 -11 33 -2 17 -7 36 -12 43 -6 8 -5 12 4 12 11 0 11 2 1
9 -7 4 -12 12 -11 17 1 5 0 11 -1 14 -7 20 -7 40 2 40 6 0 5 6 -2 15 -10 12
-10 15 1 16 8 0 5 4 -6 9 -11 5 -14 9 -7 9 9 1 11 8 7 21 -4 13 -2 20 7 20 8
0 9 3 3 8 -11 8 -15 53 -4 47 4 -3 9 4 12 15 6 22 2 26 -8 9z"/>
<path d="M2800 2851 c0 -4 -13 -6 -29 -3 -16 2 -32 -1 -36 -8 -5 -8 -11 -8
-23 2 -9 8 -13 8 -9 1 5 -8 -10 -11 -53 -10 -33 1 -60 -1 -60 -4 0 -3 -10 -5
-22 -4 -13 1 -29 -3 -37 -9 -12 -9 -13 -8 -6 4 8 13 7 13 -11 0 -31 -23 -43
-41 -37 -56 3 -8 10 -11 15 -8 6 4 6 -1 -1 -13 -6 -11 -7 -23 -3 -27 3 -4 0
-11 -8 -16 -8 -6 -10 -10 -5 -10 6 0 11 -9 12 -20 1 -13 -2 -18 -10 -14 -9 5
-9 3 0 -6 10 -11 10 -17 0 -29 -7 -9 -8 -12 -1 -8 7 4 12 -2 12 -18 0 -14 -6
-25 -12 -25 -6 0 -4 -5 4 -10 8 -5 11 -10 5 -10 -5 0 -3 -5 5 -10 9 -6 10 -10
3 -10 -7 0 -10 -10 -7 -25 3 -16 0 -25 -8 -25 -10 0 -10 -2 0 -9 8 -4 14 -12
14 -16 0 -4 -6 -12 -14 -16 -7 -5 -8 -9 -2 -9 12 0 12 -29 -1 -49 -5 -9 -4
-12 2 -8 6 4 11 -4 11 -18 0 -14 -6 -25 -12 -25 -6 0 -6 -4 2 -9 8 -4 14 -12
14 -16 0 -4 -6 -12 -14 -16 -10 -7 -10 -9 0 -9 15 0 16 -36 2 -45 -7 -4 -7
-12 -2 -18 10 -15 10 -27 -2 -46 -6 -9 -5 -12 1 -8 6 4 10 -9 10 -33 0 -26 -4
-37 -11 -33 -7 5 -7 2 0 -8 7 -8 11 -25 10 -39 -1 -14 3 -31 8 -39 9 -12 8
-13 -3 -6 -11 6 -13 4 -8 -8 4 -10 1 -17 -6 -17 -8 0 -6 -4 3 -10 8 -5 11 -10
6 -10 -5 0 -2 -8 5 -17 12 -14 12 -16 0 -8 -11 6 -13 4 -8 -7 3 -9 0 -21 -6
-28 -8 -9 -8 -11 -1 -7 7 4 12 -3 12 -18 0 -14 -6 -25 -12 -25 -7 0 -8 -3 0
-8 14 -9 14 -102 0 -102 -6 0 -5 -4 2 -9 8 -4 13 -11 13 -15 -4 -27 1 -38 14
-32 8 3 15 0 15 -6 0 -7 5 -6 15 2 8 6 20 8 26 4 8 -5 9 -3 5 5 -5 8 -3 11 5
9 8 -1 37 6 65 16 44 16 51 23 49 43 -1 12 2 23 7 23 5 0 4 8 -1 19 -6 10 -8
21 -4 25 9 8 9 75 1 69 -5 -2 -8 1 -8 6 0 6 4 11 9 11 5 0 6 15 1 34 -4 19 -4
40 1 47 4 7 3 21 -2 30 -6 12 -5 19 4 22 6 3 7 6 1 6 -5 1 -9 13 -7 29 1 15 4
41 6 59 2 17 -1 30 -5 27 -4 -3 -8 2 -8 11 0 10 5 13 13 9 9 -6 9 -5 0 7 -7 9
-8 20 -3 29 5 8 6 19 2 24 -10 18 -9 46 2 46 6 0 4 5 -4 10 -9 6 -10 10 -3 10
8 0 9 9 3 30 -5 17 -6 30 -2 30 4 0 7 16 8 35 0 18 -2 32 -5 30 -3 -1 -6 7 -6
20 0 13 3 21 6 19 4 -2 10 4 13 13 4 9 1 20 -6 25 -11 6 -10 8 0 8 7 0 11 4 7
9 -3 5 -1 12 5 16 6 4 8 10 5 15 -3 5 0 20 7 32 7 13 13 25 14 28 8 28 30 70
36 70 4 0 8 4 8 10 0 13 48 59 54 52 3 -3 6 2 6 11 0 10 6 14 14 11 7 -3 16 2
20 11 3 10 11 13 18 9 7 -4 10 -4 6 0 -4 5 -3 18 2 31 7 19 5 22 -18 21 -15
-1 -39 2 -54 6 -16 3 -28 3 -28 -1z"/>
</g>
</svg>
